# Blender v2.79 (sub 0) OBJ File: 'clock.blend'
# www.blender.org
mtllib clock-ring.mtl
o Cylinder.001
v 0.560038 5.063380 0.580242
v 1.352050 4.271368 0.580242
v 1.352050 3.151292 0.580242
v 0.560037 2.359280 0.580242
v -0.560038 2.359280 0.580242
v -1.352050 3.151293 0.580242
v -0.465613 2.587241 0.566052
v -1.352050 4.271368 0.580242
v -0.560038 5.063380 0.580242
v 0.512825 4.949399 0.721673
v 1.238070 4.224155 0.721673
v 1.238070 3.198504 0.721672
v 0.512825 2.473260 0.721672
v -0.512825 2.473261 0.721672
v -1.238070 3.198505 0.721672
v -1.238070 4.224155 0.721673
v -0.512825 4.949399 0.721673
v 1.124089 3.245717 0.566052
v 0.465613 4.835419 0.566052
v -0.465613 4.835419 0.566052
v -1.124089 3.245717 0.566052
v 0.465613 2.587241 0.566052
v 1.124089 4.176943 0.566052
v -1.124089 4.176943 0.566052
v 0.560038 5.063380 0.438811
v 0.548235 5.034885 0.686315
v -0.000000 5.179368 0.580242
v 1.038060 4.749390 0.580242
v 1.352050 4.271368 0.438811
v 1.323555 4.259564 0.686315
v 1.468038 3.711330 0.580242
v 1.352050 3.151292 0.438811
v 1.323555 3.163095 0.686315
v 1.038060 2.673270 0.580242
v 0.560038 2.359279 0.438811
v 0.548234 2.387775 0.686315
v -0.000000 2.243292 0.580242
v -0.560038 2.359280 0.438811
v -0.548235 2.387775 0.686315
v -1.038060 2.673271 0.580242
v -1.352050 3.151293 0.438811
v -1.323555 3.163095 0.686315
v -1.468038 3.711330 0.580242
v -1.352050 4.271368 0.438811
v -1.323555 4.259564 0.686315
v -1.038060 4.749390 0.580242
v -0.560038 5.063380 0.438811
v -0.548235 5.034885 0.686315
v 0.477416 4.863914 0.682768
v 1.152584 4.188746 0.682767
v 1.152584 3.233914 0.682767
v 0.477416 2.558746 0.682767
v -0.477416 2.558746 0.682767
v -1.152584 3.233914 0.682767
v -1.152584 4.188746 0.682767
v -0.477416 4.863914 0.682768
v -0.000000 5.055609 0.721673
v 0.950549 4.661879 0.721673
v 1.344279 3.711330 0.721673
v 0.950549 2.760781 0.721672
v -0.000000 2.367051 0.721672
v -0.950549 2.760781 0.721672
v -1.344279 3.711330 0.721673
v -0.950549 4.661879 0.721673
v 0.465613 4.835419 0.410432
v 1.124089 4.176943 0.410432
v 1.124089 3.245717 0.410432
v 0.465613 2.587241 0.410432
v -0.465613 2.587241 0.410432
v -1.124089 3.245717 0.410432
v -1.124089 4.176943 0.410432
v -0.465613 4.835419 0.410432
v -0.000000 2.490810 0.566052
v -0.863038 2.848292 0.566052
v 1.220520 3.711330 0.566052
v 0.863038 2.848292 0.566052
v -0.000000 4.931850 0.566052
v 0.863038 4.574368 0.566052
v -0.863038 4.574368 0.566052
v -1.220520 3.711330 0.566052
v -0.000000 5.179368 0.438811
v -0.000000 4.962790 0.682767
v 1.038060 4.749390 0.438811
v 0.884916 4.596246 0.682767
v 1.468038 3.711330 0.438811
v 1.251460 3.711330 0.682767
v 1.038060 2.673270 0.438811
v 0.884916 2.826414 0.682767
v -0.000000 2.243292 0.438811
v -0.000000 2.459870 0.682767
v -1.038060 2.673271 0.438811
v -0.884916 2.826414 0.682767
v -1.468038 3.711330 0.438811
v -1.251460 3.711330 0.682767
v -1.038060 4.749390 0.438811
v -0.884916 4.596246 0.682767
v 1.016182 4.727512 0.686315
v -0.000000 5.148428 0.686315
v 1.437098 3.711330 0.686315
v 1.016182 2.695148 0.686315
v -0.000000 2.274232 0.686315
v -1.016182 2.695148 0.686315
v -1.437098 3.711330 0.686315
v -1.016182 4.727512 0.686315
v 0.863038 4.574368 0.410432
v -0.000000 4.931850 0.410432
v 1.220520 3.711330 0.410432
v 0.863038 2.848292 0.410432
v -0.000000 2.490810 0.410432
v -0.863038 2.848292 0.410432
v -1.220520 3.711330 0.410432
v -0.863038 4.574368 0.410432
vn 0.3790 0.9149 0.1387
vn 0.3827 0.9239 0.0000
vn 0.0000 1.0000 0.0000
vn 0.0000 0.9903 0.1389
vn 0.0000 0.7593 0.6507
vn 0.2901 0.7004 0.6521
vn 0.5369 0.5369 0.6507
vn 0.7002 0.7002 0.1389
vn 0.7071 0.7071 0.0000
vn 0.9149 0.3790 0.1387
vn 0.9239 0.3827 0.0000
vn 0.7004 0.2901 0.6521
vn 0.7593 0.0000 0.6507
vn 0.9903 0.0000 0.1389
vn 1.0000 0.0000 0.0000
vn 0.9149 -0.3790 0.1387
vn 0.9239 -0.3827 0.0000
vn 0.7004 -0.2901 0.6520
vn 0.5369 -0.5369 0.6507
vn 0.7002 -0.7002 0.1389
vn 0.7071 -0.7071 0.0000
vn 0.3790 -0.9149 0.1387
vn 0.3827 -0.9239 0.0000
vn 0.2901 -0.7004 0.6521
vn 0.0000 -0.7593 0.6507
vn 0.0000 -0.9903 0.1389
vn 0.0000 -1.0000 0.0000
vn -0.3790 -0.9149 0.1387
vn -0.3827 -0.9239 0.0000
vn -0.2901 -0.7004 0.6521
vn -0.5369 -0.5369 0.6507
vn -0.7002 -0.7002 0.1389
vn -0.7071 -0.7071 0.0000
vn -0.9149 -0.3790 0.1387
vn -0.9239 -0.3827 0.0000
vn -0.7004 -0.2901 0.6520
vn -0.7593 0.0000 0.6507
vn -0.9903 0.0000 0.1389
vn -1.0000 0.0000 0.0000
vn 0.3794 0.9159 0.1308
vn 0.7009 0.7009 0.1314
vn 0.5142 0.5142 0.6864
vn 0.2794 0.6745 0.6833
vn 0.0000 0.7272 0.6864
vn 0.0000 0.9913 0.1314
vn -0.9149 0.3790 0.1387
vn -0.9239 0.3827 0.0000
vn -0.7004 0.2901 0.6521
vn -0.5369 0.5369 0.6507
vn -0.7002 0.7002 0.1389
vn -0.7071 0.7071 0.0000
vn -0.3790 0.9149 0.1387
vn -0.3827 0.9239 0.0000
vn -0.2901 0.7004 0.6520
vn 0.0107 0.0260 0.9996
vn 0.0000 0.0317 0.9995
vn 0.0000 -0.7272 0.6864
vn -0.2794 -0.6745 0.6833
vn -0.5142 -0.5142 0.6864
vn 0.0224 0.0224 0.9995
vn 0.0260 0.0107 0.9996
vn -0.6745 -0.2794 0.6833
vn -0.7272 0.0000 0.6864
vn 0.0317 0.0000 0.9995
vn 0.0260 -0.0107 0.9996
vn -0.6745 0.2794 0.6833
vn -0.5142 0.5142 0.6864
vn 0.0224 -0.0224 0.9995
vn 0.0107 -0.0260 0.9996
vn -0.2794 0.6745 0.6833
vn 0.0000 -0.0317 0.9995
vn -0.0107 -0.0260 0.9996
vn -0.0224 -0.0224 0.9995
vn -0.0260 -0.0107 0.9996
vn 0.6745 0.2794 0.6833
vn 0.7272 0.0000 0.6864
vn -0.0317 0.0000 0.9995
vn -0.0260 0.0107 0.9996
vn 0.6745 -0.2794 0.6833
vn 0.5142 -0.5142 0.6864
vn -0.0224 0.0224 0.9995
vn -0.0107 0.0260 0.9996
vn 0.2794 -0.6745 0.6833
vn -0.9159 0.3794 0.1308
vn -0.7009 0.7009 0.1314
vn -0.9913 0.0000 0.1314
vn -0.3794 -0.9159 0.1308
vn -0.7009 -0.7009 0.1314
vn 0.0000 -0.9913 0.1314
vn 0.3794 -0.9159 0.1308
vn 0.7009 -0.7009 0.1314
vn 0.9159 0.3794 0.1308
vn 0.9913 0.0000 0.1314
vn -0.3794 0.9159 0.1308
vn -0.9159 -0.3794 0.1308
vn 0.9159 -0.3794 0.1308
usemtl None
s 1
f 1//1 25//2 81//3 27//4
f 1//1 27//4 98//5 26//6
f 1//1 26//6 97//7 28//8
f 1//1 28//8 83//9 25//2
f 2//10 29//11 83//9 28//8
f 2//10 28//8 97//7 30//12
f 2//10 30//12 99//13 31//14
f 2//10 31//14 85//15 29//11
f 3//16 32//17 85//15 31//14
f 3//16 31//14 99//13 33//18
f 3//16 33//18 100//19 34//20
f 3//16 34//20 87//21 32//17
f 4//22 35//23 87//21 34//20
f 4//22 34//20 100//19 36//24
f 4//22 36//24 101//25 37//26
f 4//22 37//26 89//27 35//23
f 5//28 38//29 89//27 37//26
f 5//28 37//26 101//25 39//30
f 5//28 39//30 102//31 40//32
f 5//28 40//32 91//33 38//29
f 6//34 41//35 91//33 40//32
f 6//34 40//32 102//31 42//36
f 6//34 42//36 103//37 43//38
f 6//34 43//38 93//39 41//35
f 7//40 74//41 92//42 53//43
f 7//40 53//43 90//44 73//45
f 7//40 73//45 109//3 69//2
f 7//40 69//2 110//9 74//41
f 8//46 44//47 93//39 43//38
f 8//46 43//38 103//37 45//48
f 8//46 45//48 104//49 46//50
f 8//46 46//50 95//51 44//47
f 9//52 47//53 95//51 46//50
f 9//52 46//50 104//49 48//54
f 9//52 48//54 98//5 27//4
f 9//52 27//4 81//3 47//53
f 10//55 57//56 82//57 49//58
f 10//55 49//58 84//59 58//60
f 10//55 58//60 97//7 26//6
f 10//55 26//6 98//5 57//56
f 11//61 58//60 84//59 50//62
f 11//61 50//62 86//63 59//64
f 11//61 59//64 99//13 30//12
f 11//61 30//12 97//7 58//60
f 12//65 59//64 86//63 51//66
f 12//65 51//66 88//67 60//68
f 12//65 60//68 100//19 33//18
f 12//65 33//18 99//13 59//64
f 13//69 60//68 88//67 52//70
f 13//69 52//70 90//44 61//71
f 13//69 61//71 101//25 36//24
f 13//69 36//24 100//19 60//68
f 14//72 61//71 90//44 53//43
f 14//72 53//43 92//42 62//73
f 14//72 62//73 102//31 39//30
f 14//72 39//30 101//25 61//71
f 15//74 62//73 92//42 54//75
f 15//74 54//75 94//76 63//77
f 15//74 63//77 103//37 42//36
f 15//74 42//36 102//31 62//73
f 16//78 63//77 94//76 55//79
f 16//78 55//79 96//80 64//81
f 16//78 64//81 104//49 45//48
f 16//78 45//48 103//37 63//77
f 17//82 64//81 96//80 56//83
f 17//82 56//83 82//57 57//56
f 17//82 57//56 98//5 48//54
f 17//82 48//54 104//49 64//81
f 18//84 76//85 88//67 51//66
f 18//84 51//66 86//63 75//86
f 18//84 75//86 107//39 67//47
f 18//84 67//47 108//51 76//85
f 19//87 78//88 84//59 49//58
f 19//87 49//58 82//57 77//89
f 19//87 77//89 106//27 65//29
f 19//87 65//29 105//33 78//88
f 20//90 77//89 82//57 56//83
f 20//90 56//83 96//80 79//91
f 20//90 79//91 112//21 72//23
f 20//90 72//23 106//27 77//89
f 21//92 80//93 94//76 54//75
f 21//92 54//75 92//42 74//41
f 21//92 74//41 110//9 70//11
f 21//92 70//11 111//15 80//93
f 22//94 73//45 90//44 52//70
f 22//94 52//70 88//67 76//85
f 22//94 76//85 108//51 68//53
f 22//94 68//53 109//3 73//45
f 23//95 75//86 86//63 50//62
f 23//95 50//62 84//59 78//88
f 23//95 78//88 105//33 66//35
f 23//95 66//35 107//39 75//86
f 24//96 79//91 96//80 55//79
f 24//96 55//79 94//76 80//93
f 24//96 80//93 111//15 71//17
f 24//96 71//17 112//21 79//91
